# Blender 5.1.2
# www.blender.org
o Cube
v 0.494391 0.494391 -0.494391
v 0.494391 -0.494391 -0.494391
v 0.494391 0.494391 0.494391
v 0.494391 -0.494391 0.494391
v -0.494391 0.494391 -0.494391
v -0.494391 -0.494391 -0.494391
v -0.494391 0.494391 0.494391
v -0.494391 -0.494391 0.494391
v -0.529773 -0.529773 -0.414666
v -0.568592 -0.568592 -0.294403
v -0.595833 -0.595833 -0.152428
v -0.605503 -0.605503 -0.000000
v -0.595833 -0.595833 0.152428
v -0.568592 -0.568592 0.294403
v -0.529773 -0.529773 0.414666
v 0.414666 -0.529773 -0.529773
v 0.294403 -0.568592 -0.568592
v 0.152428 -0.595833 -0.595833
v 0.000000 -0.605503 -0.605503
v -0.152428 -0.595833 -0.595833
v -0.294403 -0.568592 -0.568592
v -0.414666 -0.529773 -0.529773
v 0.529773 0.414666 -0.529773
v 0.568592 0.294403 -0.568592
v 0.595833 0.152428 -0.595833
v 0.605503 0.000000 -0.605503
v 0.595833 -0.152428 -0.595833
v 0.568592 -0.294403 -0.568592
v 0.529773 -0.414666 -0.529773
v -0.529773 -0.414666 0.529773
v -0.568592 -0.294403 0.568592
v -0.595833 -0.152428 0.595833
v -0.605503 -0.000000 0.605503
v -0.595833 0.152428 0.595833
v -0.568592 0.294403 0.568592
v -0.529773 0.414666 0.529773
v 0.529773 0.414666 0.529773
v 0.568592 0.294403 0.568592
v 0.595833 0.152428 0.595833
v 0.605503 0.000000 0.605503
v 0.595833 -0.152428 0.595833
v 0.568592 -0.294403 0.568592
v 0.529773 -0.414666 0.529773
v -0.529773 0.414666 -0.529773
v -0.568592 0.294403 -0.568592
v -0.595833 0.152428 -0.595833
v -0.605503 -0.000000 -0.605503
v -0.595833 -0.152428 -0.595833
v -0.568592 -0.294403 -0.568592
v -0.529773 -0.414666 -0.529773
v 0.414666 0.529773 0.529773
v 0.294403 0.568592 0.568592
v 0.152428 0.595833 0.595833
v -0.000000 0.605503 0.605503
v -0.152428 0.595833 0.595833
v -0.294403 0.568592 0.568592
v -0.414666 0.529773 0.529773
v 0.529773 0.529773 -0.414666
v 0.568592 0.568592 -0.294403
v 0.595833 0.595833 -0.152428
v 0.605503 0.605503 0.000000
v 0.595833 0.595833 0.152428
v 0.568592 0.568592 0.294403
v 0.529773 0.529773 0.414666
v -0.414666 -0.529773 0.529773
v -0.294403 -0.568592 0.568592
v -0.152428 -0.595833 0.595833
v -0.000000 -0.605503 0.605503
v 0.152428 -0.595833 0.595833
v 0.294403 -0.568592 0.568592
v 0.414666 -0.529773 0.529773
v -0.529773 0.529773 0.414666
v -0.568592 0.568592 0.294403
v -0.595833 0.595833 0.152428
v -0.605503 0.605503 -0.000000
v -0.595833 0.595833 -0.152428
v -0.568592 0.568592 -0.294403
v -0.529773 0.529773 -0.414666
v -0.414666 0.529773 -0.529773
v -0.294403 0.568592 -0.568592
v -0.152428 0.595833 -0.595833
v 0.000000 0.605503 -0.605503
v 0.152428 0.595833 -0.595833
v 0.294403 0.568592 -0.568592
v 0.414666 0.529773 -0.529773
v 0.529773 -0.529773 0.414666
v 0.568592 -0.568592 0.294403
v 0.595833 -0.595833 0.152428
v 0.605503 -0.605503 0.000000
v 0.595833 -0.595833 -0.152428
v 0.568592 -0.568592 -0.294403
v 0.529773 -0.529773 -0.414666
v 0.428203 0.605434 -0.428204
v 0.301566 0.661028 -0.453174
v 0.155731 0.696417 -0.473306
v 0.000000 0.708466 -0.480981
v -0.155731 0.696417 -0.473306
v -0.301566 0.661028 -0.453174
v -0.428203 0.605434 -0.428203
v 0.453174 0.661028 -0.301566
v 0.316574 0.729951 -0.316574
v 0.162909 0.773158 -0.330083
v 0.000000 0.787775 -0.335674
v -0.162909 0.773158 -0.330083
v -0.316574 0.729951 -0.316574
v -0.453174 0.661028 -0.301566
v 0.473306 0.696417 -0.155731
v 0.330083 0.773158 -0.162909
v 0.169868 0.821923 -0.169868
v -0.000000 0.838669 -0.172920
v -0.169868 0.821923 -0.169868
v -0.330083 0.773158 -0.162909
v -0.473306 0.696417 -0.155731
v 0.480981 0.708466 0.000000
v 0.335674 0.787775 0.000000
v 0.172920 0.838669 -0.000000
v -0.000000 0.856310 -0.000000
v -0.172920 0.838669 -0.000000
v -0.335674 0.787775 -0.000000
v -0.480981 0.708466 -0.000000
v 0.473306 0.696417 0.155731
v 0.330083 0.773158 0.162909
v 0.169868 0.821923 0.169868
v -0.000000 0.838669 0.172920
v -0.169868 0.821923 0.169868
v -0.330083 0.773158 0.162909
v -0.473306 0.696417 0.155731
v 0.453174 0.661028 0.301566
v 0.316574 0.729951 0.316574
v 0.162909 0.773158 0.330083
v -0.000000 0.787775 0.335674
v -0.162909 0.773158 0.330083
v -0.316574 0.729951 0.316574
v -0.453174 0.661028 0.301566
v 0.428204 0.605434 0.428204
v 0.301566 0.661028 0.453174
v 0.155731 0.696416 0.473306
v -0.000000 0.708466 0.480981
v -0.155731 0.696416 0.473306
v -0.301566 0.661028 0.453174
v -0.428204 0.605434 0.428204
v 0.428204 -0.428203 0.605434
v 0.453174 -0.301566 0.661028
v 0.473306 -0.155731 0.696416
v 0.480981 -0.000000 0.708466
v 0.473306 0.155731 0.696416
v 0.453174 0.301566 0.661028
v 0.428203 0.428203 0.605434
v 0.301566 -0.453174 0.661028
v 0.316574 -0.316574 0.729951
v 0.330083 -0.162909 0.773158
v 0.335674 -0.000000 0.787775
v 0.330083 0.162909 0.773158
v 0.316574 0.316574 0.729951
v 0.301566 0.453174 0.661028
v 0.155731 -0.473306 0.696416
v 0.162909 -0.330083 0.773158
v 0.169868 -0.169868 0.821923
v 0.172920 0.000000 0.838669
v 0.169868 0.169868 0.821923
v 0.162909 0.330083 0.773158
v 0.155731 0.473306 0.696417
v -0.000000 -0.480981 0.708466
v -0.000000 -0.335674 0.787775
v 0.000000 -0.172920 0.838669
v 0.000000 0.000000 0.856310
v 0.000000 0.172920 0.838669
v 0.000000 0.335674 0.787775
v 0.000000 0.480981 0.708466
v -0.155731 -0.473306 0.696416
v -0.162909 -0.330083 0.773158
v -0.169868 -0.169868 0.821923
v -0.172920 0.000000 0.838669
v -0.169868 0.169868 0.821923
v -0.162909 0.330083 0.773158
v -0.155731 0.473306 0.696417
v -0.301566 -0.453174 0.661028
v -0.316574 -0.316574 0.729951
v -0.330083 -0.162909 0.773158
v -0.335674 0.000000 0.787775
v -0.330083 0.162909 0.773158
v -0.316574 0.316574 0.729951
v -0.301566 0.453174 0.661028
v -0.428204 -0.428204 0.605434
v -0.453174 -0.301566 0.661028
v -0.473306 -0.155731 0.696417
v -0.480981 0.000000 0.708466
v -0.473306 0.155731 0.696417
v -0.453174 0.301566 0.661028
v -0.428204 0.428204 0.605434
v -0.605434 -0.428203 0.428204
v -0.661028 -0.301566 0.453174
v -0.696416 -0.155731 0.473306
v -0.708466 -0.000000 0.480981
v -0.696416 0.155731 0.473306
v -0.661028 0.301566 0.453174
v -0.605434 0.428203 0.428203
v -0.661028 -0.453174 0.301566
v -0.729951 -0.316574 0.316574
v -0.773158 -0.162909 0.330083
v -0.787775 -0.000000 0.335674
v -0.773158 0.162909 0.330083
v -0.729951 0.316574 0.316574
v -0.661028 0.453174 0.301566
v -0.696417 -0.473306 0.155731
v -0.773158 -0.330083 0.162909
v -0.821923 -0.169868 0.169868
v -0.838669 -0.000000 0.172920
v -0.821923 0.169868 0.169868
v -0.773158 0.330083 0.162909
v -0.696417 0.473306 0.155731
v -0.708466 -0.480981 -0.000000
v -0.787775 -0.335674 -0.000000
v -0.838669 -0.172920 -0.000000
v -0.856310 0.000000 -0.000000
v -0.838669 0.172920 -0.000000
v -0.787775 0.335674 0.000000
v -0.708466 0.480981 -0.000000
v -0.696416 -0.473306 -0.155731
v -0.773158 -0.330083 -0.162909
v -0.821923 -0.169868 -0.169868
v -0.838669 0.000000 -0.172920
v -0.821923 0.169868 -0.169868
v -0.773158 0.330083 -0.162909
v -0.696417 0.473306 -0.155731
v -0.661028 -0.453174 -0.301566
v -0.729951 -0.316574 -0.316574
v -0.773158 -0.162909 -0.330083
v -0.787775 0.000000 -0.335674
v -0.773158 0.162909 -0.330083
v -0.729951 0.316574 -0.316574
v -0.661028 0.453174 -0.301566
v -0.605434 -0.428204 -0.428203
v -0.661028 -0.301566 -0.453174
v -0.696417 -0.155731 -0.473306
v -0.708466 0.000000 -0.480981
v -0.696417 0.155731 -0.473306
v -0.661028 0.301566 -0.453174
v -0.605434 0.428204 -0.428204
v -0.428203 -0.605434 -0.428203
v -0.301566 -0.661028 -0.453174
v -0.155731 -0.696417 -0.473306
v -0.000000 -0.708466 -0.480981
v 0.155731 -0.696417 -0.473306
v 0.301566 -0.661028 -0.453174
v 0.428203 -0.605434 -0.428203
v -0.453174 -0.661028 -0.301566
v -0.316574 -0.729951 -0.316574
v -0.162909 -0.773158 -0.330083
v -0.000000 -0.787775 -0.335674
v 0.162909 -0.773158 -0.330083
v 0.316574 -0.729951 -0.316574
v 0.453174 -0.661028 -0.301566
v -0.473306 -0.696417 -0.155731
v -0.330083 -0.773158 -0.162909
v -0.169868 -0.821923 -0.169868
v -0.000000 -0.838669 -0.172920
v 0.169868 -0.821923 -0.169868
v 0.330083 -0.773158 -0.162909
v 0.473306 -0.696417 -0.155731
v -0.480981 -0.708466 -0.000000
v -0.335674 -0.787775 0.000000
v -0.172920 -0.838669 0.000000
v 0.000000 -0.856310 0.000000
v 0.172920 -0.838669 -0.000000
v 0.335674 -0.787775 -0.000000
v 0.480981 -0.708466 -0.000000
v -0.473306 -0.696417 0.155731
v -0.330083 -0.773158 0.162909
v -0.169868 -0.821923 0.169868
v 0.000000 -0.838669 0.172920
v 0.169868 -0.821923 0.169868
v 0.330083 -0.773158 0.162909
v 0.473306 -0.696417 0.155731
v -0.453174 -0.661028 0.301566
v -0.316574 -0.729951 0.316574
v -0.162909 -0.773158 0.330083
v 0.000000 -0.787775 0.335674
v 0.162909 -0.773158 0.330083
v 0.316574 -0.729951 0.316574
v 0.453174 -0.661028 0.301566
v -0.428204 -0.605434 0.428203
v -0.301566 -0.661028 0.453174
v -0.155731 -0.696417 0.473306
v 0.000000 -0.708466 0.480981
v 0.155731 -0.696417 0.473306
v 0.301566 -0.661028 0.453174
v 0.428204 -0.605434 0.428204
v 0.605434 -0.428203 -0.428203
v 0.661028 -0.301566 -0.453174
v 0.696416 -0.155731 -0.473306
v 0.708466 -0.000000 -0.480981
v 0.696416 0.155731 -0.473306
v 0.661028 0.301566 -0.453174
v 0.605434 0.428203 -0.428203
v 0.661028 -0.453174 -0.301566
v 0.729951 -0.316574 -0.316574
v 0.773158 -0.162909 -0.330083
v 0.787775 -0.000000 -0.335674
v 0.773158 0.162909 -0.330083
v 0.729951 0.316574 -0.316574
v 0.661028 0.453174 -0.301566
v 0.696416 -0.473306 -0.155731
v 0.773158 -0.330083 -0.162909
v 0.821923 -0.169868 -0.169868
v 0.838669 -0.000000 -0.172920
v 0.821923 0.169868 -0.169868
v 0.773158 0.330083 -0.162909
v 0.696417 0.473306 -0.155731
v 0.708466 -0.480981 0.000000
v 0.787775 -0.335674 0.000000
v 0.838669 -0.172920 -0.000000
v 0.856310 0.000000 -0.000000
v 0.838669 0.172920 -0.000000
v 0.787775 0.335674 -0.000000
v 0.708466 0.480981 -0.000000
v 0.696416 -0.473306 0.155731
v 0.773158 -0.330083 0.162909
v 0.821923 -0.169868 0.169868
v 0.838669 0.000000 0.172920
v 0.821923 0.169868 0.169868
v 0.773158 0.330083 0.162909
v 0.696417 0.473306 0.155731
v 0.661028 -0.453174 0.301566
v 0.729951 -0.316574 0.316574
v 0.773158 -0.162909 0.330083
v 0.787775 0.000000 0.335674
v 0.773158 0.162909 0.330083
v 0.729951 0.316574 0.316574
v 0.661028 0.453174 0.301566
v 0.605434 -0.428204 0.428203
v 0.661028 -0.301566 0.453174
v 0.696417 -0.155731 0.473306
v 0.708466 0.000000 0.480981
v 0.696417 0.155731 0.473306
v 0.661028 0.301566 0.453174
v 0.605434 0.428204 0.428204
v -0.428204 -0.428203 -0.605434
v -0.453174 -0.301566 -0.661028
v -0.473306 -0.155731 -0.696416
v -0.480981 -0.000000 -0.708466
v -0.473306 0.155731 -0.696416
v -0.453174 0.301566 -0.661028
v -0.428203 0.428203 -0.605434
v -0.301566 -0.453174 -0.661028
v -0.316574 -0.316574 -0.729951
v -0.330083 -0.162909 -0.773158
v -0.335674 -0.000000 -0.787775
v -0.330083 0.162909 -0.773158
v -0.316574 0.316574 -0.729951
v -0.301566 0.453174 -0.661028
v -0.155731 -0.473306 -0.696417
v -0.162909 -0.330083 -0.773158
v -0.169868 -0.169868 -0.821923
v -0.172920 -0.000000 -0.838669
v -0.169868 0.169868 -0.821923
v -0.162909 0.330083 -0.773158
v -0.155731 0.473306 -0.696417
v 0.000000 -0.480981 -0.708466
v 0.000000 -0.335674 -0.787775
v 0.000000 -0.172920 -0.838669
v 0.000000 0.000000 -0.856310
v 0.000000 0.172920 -0.838669
v -0.000000 0.335674 -0.787775
v -0.000000 0.480981 -0.708466
v 0.155731 -0.473306 -0.696416
v 0.162909 -0.330083 -0.773158
v 0.169868 -0.169868 -0.821923
v 0.172920 0.000000 -0.838669
v 0.169868 0.169868 -0.821923
v 0.162909 0.330083 -0.773158
v 0.155731 0.473306 -0.696417
v 0.301566 -0.453174 -0.661028
v 0.316574 -0.316574 -0.729951
v 0.330083 -0.162909 -0.773158
v 0.335674 0.000000 -0.787775
v 0.330083 0.162909 -0.773158
v 0.316574 0.316574 -0.729951
v 0.301566 0.453174 -0.661028
v 0.428203 -0.428204 -0.605434
v 0.453174 -0.301566 -0.661028
v 0.473306 -0.155731 -0.696417
v 0.480981 0.000000 -0.708466
v 0.473306 0.155731 -0.696417
v 0.453174 0.301566 -0.661028
v 0.428204 0.428204 -0.605434
vn 0.4379 0.7852 -0.4379
vn 0.2733 0.8442 -0.4611
vn 0.0930 0.8748 -0.4755
vn -0.0930 0.8748 -0.4755
vn -0.2733 0.8442 -0.4611
vn -0.4379 0.7852 -0.4379
vn 0.4611 0.8442 -0.2733
vn 0.2866 0.9142 -0.2866
vn 0.0972 0.9504 -0.2954
vn -0.0972 0.9504 -0.2954
vn -0.2866 0.9142 -0.2866
vn -0.4611 0.8442 -0.2733
vn 0.4755 0.8748 -0.0930
vn 0.2954 0.9504 -0.0972
vn 0.1002 0.9899 -0.1002
vn -0.1002 0.9899 -0.1002
vn -0.2954 0.9504 -0.0972
vn -0.4755 0.8748 -0.0930
vn 0.4755 0.8748 0.0930
vn 0.2954 0.9504 0.0972
vn 0.1002 0.9899 0.1002
vn -0.1002 0.9899 0.1002
vn -0.2954 0.9504 0.0972
vn -0.4755 0.8748 0.0930
vn 0.4611 0.8442 0.2733
vn 0.2866 0.9142 0.2866
vn 0.0972 0.9504 0.2954
vn -0.0972 0.9504 0.2954
vn -0.2866 0.9142 0.2866
vn -0.4611 0.8442 0.2733
vn 0.4379 0.7852 0.4379
vn 0.2733 0.8442 0.4611
vn 0.0930 0.8748 0.4755
vn -0.0930 0.8748 0.4755
vn -0.2733 0.8442 0.4611
vn -0.4379 0.7852 0.4379
vn 0.5407 0.6445 -0.5407
vn 0.4173 0.6987 -0.5811
vn 0.2630 0.7436 -0.6148
vn 0.0898 0.7681 -0.6340
vn -0.0898 0.7681 -0.6340
vn -0.2630 0.7436 -0.6148
vn -0.4173 0.6987 -0.5811
vn -0.5407 0.6445 -0.5407
vn -0.5811 0.6987 -0.4173
vn -0.6148 0.7436 -0.2630
vn -0.6340 0.7681 -0.0898
vn -0.6340 0.7681 0.0898
vn -0.6148 0.7436 0.2630
vn -0.5811 0.6987 0.4173
vn -0.5407 0.6445 0.5407
vn -0.4173 0.6987 0.5811
vn -0.2630 0.7436 0.6148
vn -0.0898 0.7681 0.6340
vn 0.0898 0.7681 0.6340
vn 0.2630 0.7436 0.6148
vn 0.4173 0.6987 0.5811
vn 0.5407 0.6445 0.5407
vn 0.5811 0.6987 0.4173
vn 0.6148 0.7436 0.2630
vn 0.6340 0.7681 0.0898
vn 0.6340 0.7681 -0.0898
vn 0.6148 0.7436 -0.2630
vn 0.5811 0.6987 -0.4173
vn 0.4379 -0.4379 0.7852
vn 0.4611 -0.2733 0.8442
vn 0.4755 -0.0930 0.8748
vn 0.4755 0.0930 0.8748
vn 0.4611 0.2733 0.8442
vn 0.4379 0.4379 0.7852
vn 0.2733 -0.4611 0.8442
vn 0.2866 -0.2866 0.9142
vn 0.2954 -0.0972 0.9504
vn 0.2954 0.0972 0.9504
vn 0.2866 0.2866 0.9142
vn 0.2733 0.4611 0.8442
vn 0.0930 -0.4755 0.8748
vn 0.0972 -0.2954 0.9504
vn 0.1002 -0.1002 0.9899
vn 0.1002 0.1002 0.9899
vn 0.0972 0.2954 0.9504
vn 0.0930 0.4755 0.8748
vn -0.0930 -0.4755 0.8748
vn -0.0972 -0.2954 0.9504
vn -0.1002 -0.1002 0.9899
vn -0.1002 0.1002 0.9899
vn -0.0972 0.2954 0.9504
vn -0.0930 0.4755 0.8748
vn -0.2733 -0.4611 0.8442
vn -0.2866 -0.2866 0.9142
vn -0.2954 -0.0972 0.9504
vn -0.2954 0.0972 0.9504
vn -0.2866 0.2866 0.9142
vn -0.2733 0.4611 0.8442
vn -0.4379 -0.4379 0.7852
vn -0.4611 -0.2733 0.8442
vn -0.4755 -0.0930 0.8748
vn -0.4755 0.0930 0.8748
vn -0.4611 0.2733 0.8442
vn -0.4379 0.4379 0.7852
vn 0.5407 -0.5407 0.6445
vn 0.5811 -0.4173 0.6987
vn 0.6148 -0.2630 0.7436
vn 0.6340 -0.0898 0.7681
vn 0.6340 0.0898 0.7681
vn 0.6148 0.2630 0.7436
vn 0.5811 0.4173 0.6987
vn 0.5407 0.5407 0.6445
vn 0.4173 0.5811 0.6987
vn 0.2630 0.6148 0.7436
vn 0.0898 0.6340 0.7681
vn -0.0898 0.6340 0.7681
vn -0.2630 0.6148 0.7436
vn -0.4173 0.5811 0.6987
vn -0.5407 0.5407 0.6445
vn -0.5811 0.4173 0.6987
vn -0.6148 0.2630 0.7436
vn -0.6340 0.0898 0.7681
vn -0.6340 -0.0898 0.7681
vn -0.6148 -0.2630 0.7436
vn -0.5811 -0.4173 0.6987
vn -0.5407 -0.5407 0.6445
vn -0.4173 -0.5811 0.6987
vn -0.2630 -0.6148 0.7436
vn -0.0898 -0.6340 0.7681
vn 0.0898 -0.6340 0.7681
vn 0.2630 -0.6148 0.7436
vn 0.4173 -0.5811 0.6987
vn -0.7852 -0.4379 0.4379
vn -0.8442 -0.2733 0.4611
vn -0.8748 -0.0930 0.4755
vn -0.8748 0.0930 0.4755
vn -0.8442 0.2733 0.4611
vn -0.7852 0.4379 0.4379
vn -0.8442 -0.4611 0.2733
vn -0.9142 -0.2866 0.2866
vn -0.9504 -0.0972 0.2954
vn -0.9504 0.0972 0.2954
vn -0.9142 0.2866 0.2866
vn -0.8442 0.4611 0.2733
vn -0.8748 -0.4755 0.0930
vn -0.9504 -0.2954 0.0972
vn -0.9899 -0.1002 0.1002
vn -0.9899 0.1002 0.1002
vn -0.9504 0.2954 0.0972
vn -0.8748 0.4755 0.0930
vn -0.8748 -0.4755 -0.0930
vn -0.9504 -0.2954 -0.0972
vn -0.9899 -0.1002 -0.1002
vn -0.9899 0.1002 -0.1002
vn -0.9504 0.2954 -0.0972
vn -0.8748 0.4755 -0.0930
vn -0.8442 -0.4611 -0.2733
vn -0.9142 -0.2866 -0.2866
vn -0.9504 -0.0972 -0.2954
vn -0.9504 0.0972 -0.2954
vn -0.9142 0.2866 -0.2866
vn -0.8442 0.4611 -0.2733
vn -0.7852 -0.4379 -0.4379
vn -0.8442 -0.2733 -0.4611
vn -0.8748 -0.0930 -0.4755
vn -0.8748 0.0930 -0.4755
vn -0.8442 0.2733 -0.4611
vn -0.7852 0.4379 -0.4379
vn -0.6445 -0.5407 0.5407
vn -0.6987 -0.4173 0.5811
vn -0.7436 -0.2630 0.6148
vn -0.7681 -0.0898 0.6340
vn -0.7681 0.0898 0.6340
vn -0.7436 0.2630 0.6148
vn -0.6987 0.4173 0.5811
vn -0.6445 0.5407 0.5407
vn -0.6987 0.5811 0.4173
vn -0.7436 0.6148 0.2630
vn -0.7681 0.6340 0.0898
vn -0.7681 0.6340 -0.0898
vn -0.7436 0.6148 -0.2630
vn -0.6987 0.5811 -0.4173
vn -0.6445 0.5407 -0.5407
vn -0.6987 0.4173 -0.5811
vn -0.7436 0.2630 -0.6148
vn -0.7681 0.0898 -0.6340
vn -0.7681 -0.0898 -0.6340
vn -0.7436 -0.2630 -0.6148
vn -0.6987 -0.4173 -0.5811
vn -0.6445 -0.5407 -0.5407
vn -0.6987 -0.5811 -0.4173
vn -0.7436 -0.6148 -0.2630
vn -0.7681 -0.6340 -0.0898
vn -0.7681 -0.6340 0.0898
vn -0.7436 -0.6148 0.2630
vn -0.6987 -0.5811 0.4173
vn -0.4379 -0.7852 -0.4379
vn -0.2733 -0.8442 -0.4611
vn -0.0930 -0.8748 -0.4755
vn 0.0930 -0.8748 -0.4755
vn 0.2733 -0.8442 -0.4611
vn 0.4379 -0.7852 -0.4379
vn -0.4611 -0.8442 -0.2733
vn -0.2866 -0.9142 -0.2866
vn -0.0972 -0.9504 -0.2954
vn 0.0972 -0.9504 -0.2954
vn 0.2866 -0.9142 -0.2866
vn 0.4611 -0.8442 -0.2733
vn -0.4755 -0.8748 -0.0930
vn -0.2954 -0.9504 -0.0972
vn -0.1002 -0.9899 -0.1002
vn 0.1002 -0.9899 -0.1002
vn 0.2954 -0.9504 -0.0972
vn 0.4755 -0.8748 -0.0930
vn -0.4755 -0.8748 0.0930
vn -0.2954 -0.9504 0.0972
vn -0.1002 -0.9899 0.1002
vn 0.1002 -0.9899 0.1002
vn 0.2954 -0.9504 0.0972
vn 0.4755 -0.8748 0.0930
vn -0.4611 -0.8442 0.2733
vn -0.2866 -0.9142 0.2866
vn -0.0972 -0.9504 0.2954
vn 0.0972 -0.9504 0.2954
vn 0.2866 -0.9142 0.2866
vn 0.4611 -0.8442 0.2733
vn -0.4379 -0.7852 0.4379
vn -0.2733 -0.8442 0.4611
vn -0.0930 -0.8748 0.4755
vn 0.0930 -0.8748 0.4755
vn 0.2733 -0.8442 0.4611
vn 0.4379 -0.7852 0.4379
vn -0.5407 -0.6445 -0.5407
vn -0.4173 -0.6987 -0.5811
vn -0.2630 -0.7436 -0.6148
vn -0.0898 -0.7681 -0.6340
vn 0.0898 -0.7681 -0.6340
vn 0.2630 -0.7436 -0.6148
vn 0.4173 -0.6987 -0.5811
vn 0.5407 -0.6445 -0.5407
vn 0.5811 -0.6987 -0.4173
vn 0.6148 -0.7436 -0.2630
vn 0.6340 -0.7681 -0.0898
vn 0.6340 -0.7681 0.0898
vn 0.6148 -0.7436 0.2630
vn 0.5811 -0.6987 0.4173
vn 0.5407 -0.6445 0.5407
vn 0.4173 -0.6987 0.5811
vn 0.2630 -0.7436 0.6148
vn 0.0898 -0.7681 0.6340
vn -0.0898 -0.7681 0.6340
vn -0.2630 -0.7436 0.6148
vn -0.4173 -0.6987 0.5811
vn -0.5407 -0.6445 0.5407
vn -0.5811 -0.6987 0.4173
vn -0.6148 -0.7436 0.2630
vn -0.6340 -0.7681 0.0898
vn -0.6340 -0.7681 -0.0898
vn -0.6148 -0.7436 -0.2630
vn -0.5811 -0.6987 -0.4173
vn 0.7852 -0.4379 -0.4379
vn 0.8442 -0.2733 -0.4611
vn 0.8748 -0.0930 -0.4755
vn 0.8748 0.0930 -0.4755
vn 0.8442 0.2733 -0.4611
vn 0.7852 0.4379 -0.4379
vn 0.8442 -0.4611 -0.2733
vn 0.9142 -0.2866 -0.2866
vn 0.9504 -0.0972 -0.2954
vn 0.9504 0.0972 -0.2954
vn 0.9142 0.2866 -0.2866
vn 0.8442 0.4611 -0.2733
vn 0.8748 -0.4755 -0.0930
vn 0.9504 -0.2954 -0.0972
vn 0.9899 -0.1002 -0.1002
vn 0.9899 0.1002 -0.1002
vn 0.9504 0.2954 -0.0972
vn 0.8748 0.4755 -0.0930
vn 0.8748 -0.4755 0.0930
vn 0.9504 -0.2954 0.0972
vn 0.9899 -0.1002 0.1002
vn 0.9899 0.1002 0.1002
vn 0.9504 0.2954 0.0972
vn 0.8748 0.4755 0.0930
vn 0.8442 -0.4611 0.2733
vn 0.9142 -0.2866 0.2866
vn 0.9504 -0.0972 0.2954
vn 0.9504 0.0972 0.2954
vn 0.9142 0.2866 0.2866
vn 0.8442 0.4611 0.2733
vn 0.7852 -0.4379 0.4379
vn 0.8442 -0.2733 0.4611
vn 0.8748 -0.0930 0.4755
vn 0.8748 0.0930 0.4755
vn 0.8442 0.2733 0.4611
vn 0.7852 0.4379 0.4379
vn 0.6445 -0.5407 -0.5407
vn 0.6987 -0.4173 -0.5811
vn 0.7436 -0.2630 -0.6148
vn 0.7681 -0.0898 -0.6340
vn 0.7681 0.0898 -0.6340
vn 0.7436 0.2630 -0.6148
vn 0.6987 0.4173 -0.5811
vn 0.6445 0.5407 -0.5407
vn 0.6987 0.5811 -0.4173
vn 0.7436 0.6148 -0.2630
vn 0.7681 0.6340 -0.0898
vn 0.7681 0.6340 0.0898
vn 0.7436 0.6148 0.2630
vn 0.6987 0.5811 0.4173
vn 0.6445 0.5407 0.5407
vn 0.6987 0.4173 0.5811
vn 0.7436 0.2630 0.6148
vn 0.7681 0.0898 0.6340
vn 0.7681 -0.0898 0.6340
vn 0.7436 -0.2630 0.6148
vn 0.6987 -0.4173 0.5811
vn 0.6445 -0.5407 0.5407
vn 0.6987 -0.5811 0.4173
vn 0.7436 -0.6148 0.2630
vn 0.7681 -0.6340 0.0898
vn 0.7681 -0.6340 -0.0898
vn 0.7436 -0.6148 -0.2630
vn 0.6987 -0.5811 -0.4173
vn -0.4379 -0.4379 -0.7852
vn -0.4611 -0.2733 -0.8442
vn -0.4755 -0.0930 -0.8748
vn -0.4755 0.0930 -0.8748
vn -0.4611 0.2733 -0.8442
vn -0.4379 0.4379 -0.7852
vn -0.2733 -0.4611 -0.8442
vn -0.2866 -0.2866 -0.9142
vn -0.2954 -0.0972 -0.9504
vn -0.2954 0.0972 -0.9504
vn -0.2866 0.2866 -0.9142
vn -0.2733 0.4611 -0.8442
vn -0.0930 -0.4755 -0.8748
vn -0.0972 -0.2954 -0.9504
vn -0.1002 -0.1002 -0.9899
vn -0.1002 0.1002 -0.9899
vn -0.0972 0.2954 -0.9504
vn -0.0930 0.4755 -0.8748
vn 0.0930 -0.4755 -0.8748
vn 0.0972 -0.2954 -0.9504
vn 0.1002 -0.1002 -0.9899
vn 0.1002 0.1002 -0.9899
vn 0.0972 0.2954 -0.9504
vn 0.0930 0.4755 -0.8748
vn 0.2733 -0.4611 -0.8442
vn 0.2866 -0.2866 -0.9142
vn 0.2954 -0.0972 -0.9504
vn 0.2954 0.0972 -0.9504
vn 0.2866 0.2866 -0.9142
vn 0.2733 0.4611 -0.8442
vn 0.4379 -0.4379 -0.7852
vn 0.4611 -0.2733 -0.8442
vn 0.4755 -0.0930 -0.8748
vn 0.4755 0.0930 -0.8748
vn 0.4611 0.2733 -0.8442
vn 0.4379 0.4379 -0.7852
vn -0.5407 -0.5407 -0.6445
vn -0.5811 -0.4173 -0.6987
vn -0.6148 -0.2630 -0.7436
vn -0.6340 -0.0898 -0.7681
vn -0.6340 0.0898 -0.7681
vn -0.6148 0.2630 -0.7436
vn -0.5811 0.4173 -0.6987
vn -0.5407 0.5407 -0.6445
vn -0.4173 0.5811 -0.6987
vn -0.2630 0.6148 -0.7436
vn -0.0898 0.6340 -0.7681
vn 0.0898 0.6340 -0.7681
vn 0.2630 0.6148 -0.7436
vn 0.4173 0.5811 -0.6987
vn 0.5407 0.5407 -0.6445
vn 0.5811 0.4173 -0.6987
vn 0.6148 0.2630 -0.7436
vn 0.6340 0.0898 -0.7681
vn 0.6340 -0.0898 -0.7681
vn 0.6148 -0.2630 -0.7436
vn 0.5811 -0.4173 -0.6987
vn 0.5407 -0.5407 -0.6445
vn 0.4173 -0.5811 -0.6987
vn 0.2630 -0.6148 -0.7436
vn 0.0898 -0.6340 -0.7681
vn -0.0898 -0.6340 -0.7681
vn -0.2630 -0.6148 -0.7436
vn -0.4173 -0.5811 -0.6987
vt 0.656250 0.531250
vt 0.687500 0.531250
vt 0.687500 0.562500
vt 0.656250 0.562500
vt 0.718750 0.531250
vt 0.718750 0.562500
vt 0.750000 0.531250
vt 0.750000 0.562500
vt 0.781250 0.531250
vt 0.781250 0.562500
vt 0.812500 0.531250
vt 0.812500 0.562500
vt 0.843750 0.531250
vt 0.843750 0.562500
vt 0.687500 0.593750
vt 0.656250 0.593750
vt 0.718750 0.593750
vt 0.750000 0.593750
vt 0.781250 0.593750
vt 0.812500 0.593750
vt 0.843750 0.593750
vt 0.687500 0.625000
vt 0.656250 0.625000
vt 0.718750 0.625000
vt 0.750000 0.625000
vt 0.781250 0.625000
vt 0.812500 0.625000
vt 0.843750 0.625000
vt 0.687500 0.656250
vt 0.656250 0.656250
vt 0.718750 0.656250
vt 0.750000 0.656250
vt 0.781250 0.656250
vt 0.812500 0.656250
vt 0.843750 0.656250
vt 0.687500 0.687500
vt 0.656250 0.687500
vt 0.718750 0.687500
vt 0.750000 0.687500
vt 0.781250 0.687500
vt 0.812500 0.687500
vt 0.843750 0.687500
vt 0.687500 0.718750
vt 0.656250 0.718750
vt 0.718750 0.718750
vt 0.750000 0.718750
vt 0.781250 0.718750
vt 0.812500 0.718750
vt 0.843750 0.718750
vt 0.625000 0.500000
vt 0.656250 0.500000
vt 0.625000 0.531250
vt 0.687500 0.500000
vt 0.718750 0.500000
vt 0.750000 0.500000
vt 0.781250 0.500000
vt 0.812500 0.500000
vt 0.843750 0.500000
vt 0.875000 0.500000
vt 0.875000 0.531250
vt 0.875000 0.562500
vt 0.875000 0.593750
vt 0.875000 0.625000
vt 0.875000 0.656250
vt 0.875000 0.687500
vt 0.875000 0.718750
vt 0.875000 0.750000
vt 0.843750 0.750000
vt 0.812500 0.750000
vt 0.781250 0.750000
vt 0.750000 0.750000
vt 0.718750 0.750000
vt 0.687500 0.750000
vt 0.656250 0.750000
vt 0.625000 0.718750
vt 0.625000 0.750000
vt 0.625000 0.687500
vt 0.625000 0.656250
vt 0.625000 0.625000
vt 0.625000 0.593750
vt 0.625000 0.562500
vt 0.406250 0.781250
vt 0.437500 0.781250
vt 0.437500 0.812500
vt 0.406250 0.812500
vt 0.468750 0.781250
vt 0.468750 0.812500
vt 0.500000 0.781250
vt 0.500000 0.812500
vt 0.531250 0.781250
vt 0.531250 0.812500
vt 0.562500 0.781250
vt 0.562500 0.812500
vt 0.593750 0.781250
vt 0.593750 0.812500
vt 0.437500 0.843750
vt 0.406250 0.843750
vt 0.468750 0.843750
vt 0.500000 0.843750
vt 0.531250 0.843750
vt 0.562500 0.843750
vt 0.593750 0.843750
vt 0.437500 0.875000
vt 0.406250 0.875000
vt 0.468750 0.875000
vt 0.500000 0.875000
vt 0.531250 0.875000
vt 0.562500 0.875000
vt 0.593750 0.875000
vt 0.437500 0.906250
vt 0.406250 0.906250
vt 0.468750 0.906250
vt 0.500000 0.906250
vt 0.531250 0.906250
vt 0.562500 0.906250
vt 0.593750 0.906250
vt 0.437500 0.937500
vt 0.406250 0.937500
vt 0.468750 0.937500
vt 0.500000 0.937500
vt 0.531250 0.937500
vt 0.562500 0.937500
vt 0.593750 0.937500
vt 0.437500 0.968750
vt 0.406250 0.968750
vt 0.468750 0.968750
vt 0.500000 0.968750
vt 0.531250 0.968750
vt 0.562500 0.968750
vt 0.593750 0.968750
vt 0.375000 0.750000
vt 0.406250 0.750000
vt 0.375000 0.781250
vt 0.437500 0.750000
vt 0.468750 0.750000
vt 0.500000 0.750000
vt 0.531250 0.750000
vt 0.562500 0.750000
vt 0.593750 0.750000
vt 0.625000 0.781250
vt 0.625000 0.812500
vt 0.625000 0.843750
vt 0.625000 0.875000
vt 0.625000 0.906250
vt 0.625000 0.937500
vt 0.625000 0.968750
vt 0.625000 1.000000
vt 0.593750 1.000000
vt 0.562500 1.000000
vt 0.531250 1.000000
vt 0.500000 1.000000
vt 0.468750 1.000000
vt 0.437500 1.000000
vt 0.406250 1.000000
vt 0.375000 0.968750
vt 0.375000 1.000000
vt 0.375000 0.937500
vt 0.375000 0.906250
vt 0.375000 0.875000
vt 0.375000 0.843750
vt 0.375000 0.812500
vt 0.406250 0.031250
vt 0.437500 0.031250
vt 0.437500 0.062500
vt 0.406250 0.062500
vt 0.468750 0.031250
vt 0.468750 0.062500
vt 0.500000 0.031250
vt 0.500000 0.062500
vt 0.531250 0.031250
vt 0.531250 0.062500
vt 0.562500 0.031250
vt 0.562500 0.062500
vt 0.593750 0.031250
vt 0.593750 0.062500
vt 0.437500 0.093750
vt 0.406250 0.093750
vt 0.468750 0.093750
vt 0.500000 0.093750
vt 0.531250 0.093750
vt 0.562500 0.093750
vt 0.593750 0.093750
vt 0.437500 0.125000
vt 0.406250 0.125000
vt 0.468750 0.125000
vt 0.500000 0.125000
vt 0.531250 0.125000
vt 0.562500 0.125000
vt 0.593750 0.125000
vt 0.437500 0.156250
vt 0.406250 0.156250
vt 0.468750 0.156250
vt 0.500000 0.156250
vt 0.531250 0.156250
vt 0.562500 0.156250
vt 0.593750 0.156250
vt 0.437500 0.187500
vt 0.406250 0.187500
vt 0.468750 0.187500
vt 0.500000 0.187500
vt 0.531250 0.187500
vt 0.562500 0.187500
vt 0.593750 0.187500
vt 0.437500 0.218750
vt 0.406250 0.218750
vt 0.468750 0.218750
vt 0.500000 0.218750
vt 0.531250 0.218750
vt 0.562500 0.218750
vt 0.593750 0.218750
vt 0.375000 0.000000
vt 0.406250 0.000000
vt 0.375000 0.031250
vt 0.437500 0.000000
vt 0.468750 0.000000
vt 0.500000 0.000000
vt 0.531250 0.000000
vt 0.562500 0.000000
vt 0.593750 0.000000
vt 0.625000 0.000000
vt 0.625000 0.031250
vt 0.625000 0.062500
vt 0.625000 0.093750
vt 0.625000 0.125000
vt 0.625000 0.156250
vt 0.625000 0.187500
vt 0.625000 0.218750
vt 0.625000 0.250000
vt 0.593750 0.250000
vt 0.562500 0.250000
vt 0.531250 0.250000
vt 0.500000 0.250000
vt 0.468750 0.250000
vt 0.437500 0.250000
vt 0.406250 0.250000
vt 0.375000 0.218750
vt 0.375000 0.250000
vt 0.375000 0.187500
vt 0.375000 0.156250
vt 0.375000 0.125000
vt 0.375000 0.093750
vt 0.375000 0.062500
vt 0.156250 0.531250
vt 0.187500 0.531250
vt 0.187500 0.562500
vt 0.156250 0.562500
vt 0.218750 0.531250
vt 0.218750 0.562500
vt 0.250000 0.531250
vt 0.250000 0.562500
vt 0.281250 0.531250
vt 0.281250 0.562500
vt 0.312500 0.531250
vt 0.312500 0.562500
vt 0.343750 0.531250
vt 0.343750 0.562500
vt 0.187500 0.593750
vt 0.156250 0.593750
vt 0.218750 0.593750
vt 0.250000 0.593750
vt 0.281250 0.593750
vt 0.312500 0.593750
vt 0.343750 0.593750
vt 0.187500 0.625000
vt 0.156250 0.625000
vt 0.218750 0.625000
vt 0.250000 0.625000
vt 0.281250 0.625000
vt 0.312500 0.625000
vt 0.343750 0.625000
vt 0.187500 0.656250
vt 0.156250 0.656250
vt 0.218750 0.656250
vt 0.250000 0.656250
vt 0.281250 0.656250
vt 0.312500 0.656250
vt 0.343750 0.656250
vt 0.187500 0.687500
vt 0.156250 0.687500
vt 0.218750 0.687500
vt 0.250000 0.687500
vt 0.281250 0.687500
vt 0.312500 0.687500
vt 0.343750 0.687500
vt 0.187500 0.718750
vt 0.156250 0.718750
vt 0.218750 0.718750
vt 0.250000 0.718750
vt 0.281250 0.718750
vt 0.312500 0.718750
vt 0.343750 0.718750
vt 0.125000 0.500000
vt 0.156250 0.500000
vt 0.125000 0.531250
vt 0.187500 0.500000
vt 0.218750 0.500000
vt 0.250000 0.500000
vt 0.281250 0.500000
vt 0.312500 0.500000
vt 0.343750 0.500000
vt 0.375000 0.500000
vt 0.375000 0.531250
vt 0.375000 0.562500
vt 0.375000 0.593750
vt 0.375000 0.625000
vt 0.375000 0.656250
vt 0.375000 0.687500
vt 0.375000 0.718750
vt 0.343750 0.750000
vt 0.312500 0.750000
vt 0.281250 0.750000
vt 0.250000 0.750000
vt 0.218750 0.750000
vt 0.187500 0.750000
vt 0.156250 0.750000
vt 0.125000 0.718750
vt 0.125000 0.750000
vt 0.125000 0.687500
vt 0.125000 0.656250
vt 0.125000 0.625000
vt 0.125000 0.593750
vt 0.125000 0.562500
vt 0.406250 0.531250
vt 0.437500 0.531250
vt 0.437500 0.562500
vt 0.406250 0.562500
vt 0.468750 0.531250
vt 0.468750 0.562500
vt 0.500000 0.531250
vt 0.500000 0.562500
vt 0.531250 0.531250
vt 0.531250 0.562500
vt 0.562500 0.531250
vt 0.562500 0.562500
vt 0.593750 0.531250
vt 0.593750 0.562500
vt 0.437500 0.593750
vt 0.406250 0.593750
vt 0.468750 0.593750
vt 0.500000 0.593750
vt 0.531250 0.593750
vt 0.562500 0.593750
vt 0.593750 0.593750
vt 0.437500 0.625000
vt 0.406250 0.625000
vt 0.468750 0.625000
vt 0.500000 0.625000
vt 0.531250 0.625000
vt 0.562500 0.625000
vt 0.593750 0.625000
vt 0.437500 0.656250
vt 0.406250 0.656250
vt 0.468750 0.656250
vt 0.500000 0.656250
vt 0.531250 0.656250
vt 0.562500 0.656250
vt 0.593750 0.656250
vt 0.437500 0.687500
vt 0.406250 0.687500
vt 0.468750 0.687500
vt 0.500000 0.687500
vt 0.531250 0.687500
vt 0.562500 0.687500
vt 0.593750 0.687500
vt 0.437500 0.718750
vt 0.406250 0.718750
vt 0.468750 0.718750
vt 0.500000 0.718750
vt 0.531250 0.718750
vt 0.562500 0.718750
vt 0.593750 0.718750
vt 0.406250 0.500000
vt 0.437500 0.500000
vt 0.468750 0.500000
vt 0.500000 0.500000
vt 0.531250 0.500000
vt 0.562500 0.500000
vt 0.593750 0.500000
vt 0.406250 0.281250
vt 0.437500 0.281250
vt 0.437500 0.312500
vt 0.406250 0.312500
vt 0.468750 0.281250
vt 0.468750 0.312500
vt 0.500000 0.281250
vt 0.500000 0.312500
vt 0.531250 0.281250
vt 0.531250 0.312500
vt 0.562500 0.281250
vt 0.562500 0.312500
vt 0.593750 0.281250
vt 0.593750 0.312500
vt 0.437500 0.343750
vt 0.406250 0.343750
vt 0.468750 0.343750
vt 0.500000 0.343750
vt 0.531250 0.343750
vt 0.562500 0.343750
vt 0.593750 0.343750
vt 0.437500 0.375000
vt 0.406250 0.375000
vt 0.468750 0.375000
vt 0.500000 0.375000
vt 0.531250 0.375000
vt 0.562500 0.375000
vt 0.593750 0.375000
vt 0.437500 0.406250
vt 0.406250 0.406250
vt 0.468750 0.406250
vt 0.500000 0.406250
vt 0.531250 0.406250
vt 0.562500 0.406250
vt 0.593750 0.406250
vt 0.437500 0.437500
vt 0.406250 0.437500
vt 0.468750 0.437500
vt 0.500000 0.437500
vt 0.531250 0.437500
vt 0.562500 0.437500
vt 0.593750 0.437500
vt 0.437500 0.468750
vt 0.406250 0.468750
vt 0.468750 0.468750
vt 0.500000 0.468750
vt 0.531250 0.468750
vt 0.562500 0.468750
vt 0.593750 0.468750
vt 0.375000 0.281250
vt 0.625000 0.281250
vt 0.625000 0.312500
vt 0.625000 0.343750
vt 0.625000 0.375000
vt 0.625000 0.406250
vt 0.625000 0.437500
vt 0.625000 0.468750
vt 0.375000 0.468750
vt 0.375000 0.437500
vt 0.375000 0.406250
vt 0.375000 0.375000
vt 0.375000 0.343750
vt 0.375000 0.312500
s 0
f 93/1/1 94/2/1 101/3/1 100/4/1
f 94/2/2 95/5/2 102/6/2 101/3/2
f 95/5/3 96/7/3 103/8/3 102/6/3
f 96/7/4 97/9/4 104/10/4 103/8/4
f 97/9/5 98/11/5 105/12/5 104/10/5
f 98/11/6 99/13/6 106/14/6 105/12/6
f 100/4/7 101/3/7 108/15/7 107/16/7
f 101/3/8 102/6/8 109/17/8 108/15/8
f 102/6/9 103/8/9 110/18/9 109/17/9
f 103/8/10 104/10/10 111/19/10 110/18/10
f 104/10/11 105/12/11 112/20/11 111/19/11
f 105/12/12 106/14/12 113/21/12 112/20/12
f 107/16/13 108/15/13 115/22/13 114/23/13
f 108/15/14 109/17/14 116/24/14 115/22/14
f 109/17/15 110/18/15 117/25/15 116/24/15
f 110/18/16 111/19/16 118/26/16 117/25/16
f 111/19/17 112/20/17 119/27/17 118/26/17
f 112/20/18 113/21/18 120/28/18 119/27/18
f 114/23/19 115/22/19 122/29/19 121/30/19
f 115/22/20 116/24/20 123/31/20 122/29/20
f 116/24/21 117/25/21 124/32/21 123/31/21
f 117/25/22 118/26/22 125/33/22 124/32/22
f 118/26/23 119/27/23 126/34/23 125/33/23
f 119/27/24 120/28/24 127/35/24 126/34/24
f 121/30/25 122/29/25 129/36/25 128/37/25
f 122/29/26 123/31/26 130/38/26 129/36/26
f 123/31/27 124/32/27 131/39/27 130/38/27
f 124/32/28 125/33/28 132/40/28 131/39/28
f 125/33/29 126/34/29 133/41/29 132/40/29
f 126/34/30 127/35/30 134/42/30 133/41/30
f 128/37/31 129/36/31 136/43/31 135/44/31
f 129/36/32 130/38/32 137/45/32 136/43/32
f 130/38/33 131/39/33 138/46/33 137/45/33
f 131/39/34 132/40/34 139/47/34 138/46/34
f 132/40/35 133/41/35 140/48/35 139/47/35
f 133/41/36 134/42/36 141/49/36 140/48/36
f 1/50/37 85/51/37 93/1/37 58/52/37
f 85/51/38 84/53/38 94/2/38 93/1/38
f 84/53/39 83/54/39 95/5/39 94/2/39
f 83/54/40 82/55/40 96/7/40 95/5/40
f 82/55/41 81/56/41 97/9/41 96/7/41
f 81/56/42 80/57/42 98/11/42 97/9/42
f 80/57/43 79/58/43 99/13/43 98/11/43
f 79/58/44 5/59/44 78/60/44 99/13/44
f 99/13/45 78/60/45 77/61/45 106/14/45
f 106/14/46 77/61/46 76/62/46 113/21/46
f 113/21/47 76/62/47 75/63/47 120/28/47
f 120/28/48 75/63/48 74/64/48 127/35/48
f 127/35/49 74/64/49 73/65/49 134/42/49
f 134/42/50 73/65/50 72/66/50 141/49/50
f 141/49/51 72/66/51 7/67/51 57/68/51
f 140/48/52 141/49/52 57/68/52 56/69/52
f 139/47/53 140/48/53 56/69/53 55/70/53
f 138/46/54 139/47/54 55/70/54 54/71/54
f 137/45/55 138/46/55 54/71/55 53/72/55
f 136/43/56 137/45/56 53/72/56 52/73/56
f 135/44/57 136/43/57 52/73/57 51/74/57
f 64/75/58 135/44/58 51/74/58 3/76/58
f 63/77/59 128/37/59 135/44/59 64/75/59
f 62/78/60 121/30/60 128/37/60 63/77/60
f 61/79/61 114/23/61 121/30/61 62/78/61
f 60/80/62 107/16/62 114/23/62 61/79/62
f 59/81/63 100/4/63 107/16/63 60/80/63
f 58/52/64 93/1/64 100/4/64 59/81/64
f 142/82/65 143/83/65 150/84/65 149/85/65
f 143/83/66 144/86/66 151/87/66 150/84/66
f 144/86/67 145/88/67 152/89/67 151/87/67
f 145/88/68 146/90/68 153/91/68 152/89/68
f 146/90/69 147/92/69 154/93/69 153/91/69
f 147/92/70 148/94/70 155/95/70 154/93/70
f 149/85/71 150/84/71 157/96/71 156/97/71
f 150/84/72 151/87/72 158/98/72 157/96/72
f 151/87/73 152/89/73 159/99/73 158/98/73
f 152/89/74 153/91/74 160/100/74 159/99/74
f 153/91/75 154/93/75 161/101/75 160/100/75
f 154/93/76 155/95/76 162/102/76 161/101/76
f 156/97/77 157/96/77 164/103/77 163/104/77
f 157/96/78 158/98/78 165/105/78 164/103/78
f 158/98/79 159/99/79 166/106/79 165/105/79
f 159/99/80 160/100/80 167/107/80 166/106/80
f 160/100/81 161/101/81 168/108/81 167/107/81
f 161/101/82 162/102/82 169/109/82 168/108/82
f 163/104/83 164/103/83 171/110/83 170/111/83
f 164/103/84 165/105/84 172/112/84 171/110/84
f 165/105/85 166/106/85 173/113/85 172/112/85
f 166/106/86 167/107/86 174/114/86 173/113/86
f 167/107/87 168/108/87 175/115/87 174/114/87
f 168/108/88 169/109/88 176/116/88 175/115/88
f 170/111/89 171/110/89 178/117/89 177/118/89
f 171/110/90 172/112/90 179/119/90 178/117/90
f 172/112/91 173/113/91 180/120/91 179/119/91
f 173/113/92 174/114/92 181/121/92 180/120/92
f 174/114/93 175/115/93 182/122/93 181/121/93
f 175/115/94 176/116/94 183/123/94 182/122/94
f 177/118/95 178/117/95 185/124/95 184/125/95
f 178/117/96 179/119/96 186/126/96 185/124/96
f 179/119/97 180/120/97 187/127/97 186/126/97
f 180/120/98 181/121/98 188/128/98 187/127/98
f 181/121/99 182/122/99 189/129/99 188/128/99
f 182/122/100 183/123/100 190/130/100 189/129/100
f 4/131/101 43/132/101 142/82/101 71/133/101
f 43/132/102 42/134/102 143/83/102 142/82/102
f 42/134/103 41/135/103 144/86/103 143/83/103
f 41/135/104 40/136/104 145/88/104 144/86/104
f 40/136/105 39/137/105 146/90/105 145/88/105
f 39/137/106 38/138/106 147/92/106 146/90/106
f 38/138/107 37/139/107 148/94/107 147/92/107
f 37/139/108 3/76/108 51/140/108 148/94/108
f 148/94/109 51/140/109 52/141/109 155/95/109
f 155/95/110 52/141/110 53/142/110 162/102/110
f 162/102/111 53/142/111 54/143/111 169/109/111
f 169/109/112 54/143/112 55/144/112 176/116/112
f 176/116/113 55/144/113 56/145/113 183/123/113
f 183/123/114 56/145/114 57/146/114 190/130/114
f 190/130/115 57/146/115 7/147/115 36/148/115
f 189/129/116 190/130/116 36/148/116 35/149/116
f 188/128/117 189/129/117 35/149/117 34/150/117
f 187/127/118 188/128/118 34/150/118 33/151/118
f 186/126/119 187/127/119 33/151/119 32/152/119
f 185/124/120 186/126/120 32/152/120 31/153/120
f 184/125/121 185/124/121 31/153/121 30/154/121
f 65/155/122 184/125/122 30/154/122 8/156/122
f 66/157/123 177/118/123 184/125/123 65/155/123
f 67/158/124 170/111/124 177/118/124 66/157/124
f 68/159/125 163/104/125 170/111/125 67/158/125
f 69/160/126 156/97/126 163/104/126 68/159/126
f 70/161/127 149/85/127 156/97/127 69/160/127
f 71/133/128 142/82/128 149/85/128 70/161/128
f 191/162/129 192/163/129 199/164/129 198/165/129
f 192/163/130 193/166/130 200/167/130 199/164/130
f 193/166/131 194/168/131 201/169/131 200/167/131
f 194/168/132 195/170/132 202/171/132 201/169/132
f 195/170/133 196/172/133 203/173/133 202/171/133
f 196/172/134 197/174/134 204/175/134 203/173/134
f 198/165/135 199/164/135 206/176/135 205/177/135
f 199/164/136 200/167/136 207/178/136 206/176/136
f 200/167/137 201/169/137 208/179/137 207/178/137
f 201/169/138 202/171/138 209/180/138 208/179/138
f 202/171/139 203/173/139 210/181/139 209/180/139
f 203/173/140 204/175/140 211/182/140 210/181/140
f 205/177/141 206/176/141 213/183/141 212/184/141
f 206/176/142 207/178/142 214/185/142 213/183/142
f 207/178/143 208/179/143 215/186/143 214/185/143
f 208/179/144 209/180/144 216/187/144 215/186/144
f 209/180/145 210/181/145 217/188/145 216/187/145
f 210/181/146 211/182/146 218/189/146 217/188/146
f 212/184/147 213/183/147 220/190/147 219/191/147
f 213/183/148 214/185/148 221/192/148 220/190/148
f 214/185/149 215/186/149 222/193/149 221/192/149
f 215/186/150 216/187/150 223/194/150 222/193/150
f 216/187/151 217/188/151 224/195/151 223/194/151
f 217/188/152 218/189/152 225/196/152 224/195/152
f 219/191/153 220/190/153 227/197/153 226/198/153
f 220/190/154 221/192/154 228/199/154 227/197/154
f 221/192/155 222/193/155 229/200/155 228/199/155
f 222/193/156 223/194/156 230/201/156 229/200/156
f 223/194/157 224/195/157 231/202/157 230/201/157
f 224/195/158 225/196/158 232/203/158 231/202/158
f 226/198/159 227/197/159 234/204/159 233/205/159
f 227/197/160 228/199/160 235/206/160 234/204/160
f 228/199/161 229/200/161 236/207/161 235/206/161
f 229/200/162 230/201/162 237/208/162 236/207/162
f 230/201/163 231/202/163 238/209/163 237/208/163
f 231/202/164 232/203/164 239/210/164 238/209/164
f 8/211/165 30/212/165 191/162/165 15/213/165
f 30/212/166 31/214/166 192/163/166 191/162/166
f 31/214/167 32/215/167 193/166/167 192/163/167
f 32/215/168 33/216/168 194/168/168 193/166/168
f 33/216/169 34/217/169 195/170/169 194/168/169
f 34/217/170 35/218/170 196/172/170 195/170/170
f 35/218/171 36/219/171 197/174/171 196/172/171
f 36/219/172 7/220/172 72/221/172 197/174/172
f 197/174/173 72/221/173 73/222/173 204/175/173
f 204/175/174 73/222/174 74/223/174 211/182/174
f 211/182/175 74/223/175 75/224/175 218/189/175
f 218/189/176 75/224/176 76/225/176 225/196/176
f 225/196/177 76/225/177 77/226/177 232/203/177
f 232/203/178 77/226/178 78/227/178 239/210/178
f 239/210/179 78/227/179 5/228/179 44/229/179
f 238/209/180 239/210/180 44/229/180 45/230/180
f 237/208/181 238/209/181 45/230/181 46/231/181
f 236/207/182 237/208/182 46/231/182 47/232/182
f 235/206/183 236/207/183 47/232/183 48/233/183
f 234/204/184 235/206/184 48/233/184 49/234/184
f 233/205/185 234/204/185 49/234/185 50/235/185
f 9/236/186 233/205/186 50/235/186 6/237/186
f 10/238/187 226/198/187 233/205/187 9/236/187
f 11/239/188 219/191/188 226/198/188 10/238/188
f 12/240/189 212/184/189 219/191/189 11/239/189
f 13/241/190 205/177/190 212/184/190 12/240/190
f 14/242/191 198/165/191 205/177/191 13/241/191
f 15/213/192 191/162/192 198/165/192 14/242/192
f 240/243/193 241/244/193 248/245/193 247/246/193
f 241/244/194 242/247/194 249/248/194 248/245/194
f 242/247/195 243/249/195 250/250/195 249/248/195
f 243/249/196 244/251/196 251/252/196 250/250/196
f 244/251/197 245/253/197 252/254/197 251/252/197
f 245/253/198 246/255/198 253/256/198 252/254/198
f 247/246/199 248/245/199 255/257/199 254/258/199
f 248/245/200 249/248/200 256/259/200 255/257/200
f 249/248/201 250/250/201 257/260/201 256/259/201
f 250/250/202 251/252/202 258/261/202 257/260/202
f 251/252/203 252/254/203 259/262/203 258/261/203
f 252/254/204 253/256/204 260/263/204 259/262/204
f 254/258/205 255/257/205 262/264/205 261/265/205
f 255/257/206 256/259/206 263/266/206 262/264/206
f 256/259/207 257/260/207 264/267/207 263/266/207
f 257/260/208 258/261/208 265/268/208 264/267/208
f 258/261/209 259/262/209 266/269/209 265/268/209
f 259/262/210 260/263/210 267/270/210 266/269/210
f 261/265/211 262/264/211 269/271/211 268/272/211
f 262/264/212 263/266/212 270/273/212 269/271/212
f 263/266/213 264/267/213 271/274/213 270/273/213
f 264/267/214 265/268/214 272/275/214 271/274/214
f 265/268/215 266/269/215 273/276/215 272/275/215
f 266/269/216 267/270/216 274/277/216 273/276/216
f 268/272/217 269/271/217 276/278/217 275/279/217
f 269/271/218 270/273/218 277/280/218 276/278/218
f 270/273/219 271/274/219 278/281/219 277/280/219
f 271/274/220 272/275/220 279/282/220 278/281/220
f 272/275/221 273/276/221 280/283/221 279/282/221
f 273/276/222 274/277/222 281/284/222 280/283/222
f 275/279/223 276/278/223 283/285/223 282/286/223
f 276/278/224 277/280/224 284/287/224 283/285/224
f 277/280/225 278/281/225 285/288/225 284/287/225
f 278/281/226 279/282/226 286/289/226 285/288/226
f 279/282/227 280/283/227 287/290/227 286/289/227
f 280/283/228 281/284/228 288/291/228 287/290/228
f 6/292/229 22/293/229 240/243/229 9/294/229
f 22/293/230 21/295/230 241/244/230 240/243/230
f 21/295/231 20/296/231 242/247/231 241/244/231
f 20/296/232 19/297/232 243/249/232 242/247/232
f 19/297/233 18/298/233 244/251/233 243/249/233
f 18/298/234 17/299/234 245/253/234 244/251/234
f 17/299/235 16/300/235 246/255/235 245/253/235
f 16/300/236 2/301/236 92/302/236 246/255/236
f 246/255/237 92/302/237 91/303/237 253/256/237
f 253/256/238 91/303/238 90/304/238 260/263/238
f 260/263/239 90/304/239 89/305/239 267/270/239
f 267/270/240 89/305/240 88/306/240 274/277/240
f 274/277/241 88/306/241 87/307/241 281/284/241
f 281/284/242 87/307/242 86/308/242 288/291/242
f 288/291/243 86/308/243 4/131/243 71/309/243
f 287/290/244 288/291/244 71/309/244 70/310/244
f 286/289/245 287/290/245 70/310/245 69/311/245
f 285/288/246 286/289/246 69/311/246 68/312/246
f 284/287/247 285/288/247 68/312/247 67/313/247
f 283/285/248 284/287/248 67/313/248 66/314/248
f 282/286/249 283/285/249 66/314/249 65/315/249
f 15/316/250 282/286/250 65/315/250 8/317/250
f 14/318/251 275/279/251 282/286/251 15/316/251
f 13/319/252 268/272/252 275/279/252 14/318/252
f 12/320/253 261/265/253 268/272/253 13/319/253
f 11/321/254 254/258/254 261/265/254 12/320/254
f 10/322/255 247/246/255 254/258/255 11/321/255
f 9/294/256 240/243/256 247/246/256 10/322/256
f 289/323/257 290/324/257 297/325/257 296/326/257
f 290/324/258 291/327/258 298/328/258 297/325/258
f 291/327/259 292/329/259 299/330/259 298/328/259
f 292/329/260 293/331/260 300/332/260 299/330/260
f 293/331/261 294/333/261 301/334/261 300/332/261
f 294/333/262 295/335/262 302/336/262 301/334/262
f 296/326/263 297/325/263 304/337/263 303/338/263
f 297/325/264 298/328/264 305/339/264 304/337/264
f 298/328/265 299/330/265 306/340/265 305/339/265
f 299/330/266 300/332/266 307/341/266 306/340/266
f 300/332/267 301/334/267 308/342/267 307/341/267
f 301/334/268 302/336/268 309/343/268 308/342/268
f 303/338/269 304/337/269 311/344/269 310/345/269
f 304/337/270 305/339/270 312/346/270 311/344/270
f 305/339/271 306/340/271 313/347/271 312/346/271
f 306/340/272 307/341/272 314/348/272 313/347/272
f 307/341/273 308/342/273 315/349/273 314/348/273
f 308/342/274 309/343/274 316/350/274 315/349/274
f 310/345/275 311/344/275 318/351/275 317/352/275
f 311/344/276 312/346/276 319/353/276 318/351/276
f 312/346/277 313/347/277 320/354/277 319/353/277
f 313/347/278 314/348/278 321/355/278 320/354/278
f 314/348/279 315/349/279 322/356/279 321/355/279
f 315/349/280 316/350/280 323/357/280 322/356/280
f 317/352/281 318/351/281 325/358/281 324/359/281
f 318/351/282 319/353/282 326/360/282 325/358/282
f 319/353/283 320/354/283 327/361/283 326/360/283
f 320/354/284 321/355/284 328/362/284 327/361/284
f 321/355/285 322/356/285 329/363/285 328/362/285
f 322/356/286 323/357/286 330/364/286 329/363/286
f 324/359/287 325/358/287 332/365/287 331/366/287
f 325/358/288 326/360/288 333/367/288 332/365/288
f 326/360/289 327/361/289 334/368/289 333/367/289
f 327/361/290 328/362/290 335/369/290 334/368/290
f 328/362/291 329/363/291 336/370/291 335/369/291
f 329/363/292 330/364/292 337/371/292 336/370/292
f 2/301/293 29/372/293 289/323/293 92/302/293
f 29/372/294 28/373/294 290/324/294 289/323/294
f 28/373/295 27/374/295 291/327/295 290/324/295
f 27/374/296 26/375/296 292/329/296 291/327/296
f 26/375/297 25/376/297 293/331/297 292/329/297
f 25/376/298 24/377/298 294/333/298 293/331/298
f 24/377/299 23/378/299 295/335/299 294/333/299
f 23/378/300 1/50/300 58/52/300 295/335/300
f 295/335/301 58/52/301 59/81/301 302/336/301
f 302/336/302 59/81/302 60/80/302 309/343/302
f 309/343/303 60/80/303 61/79/303 316/350/303
f 316/350/304 61/79/304 62/78/304 323/357/304
f 323/357/305 62/78/305 63/77/305 330/364/305
f 330/364/306 63/77/306 64/75/306 337/371/306
f 337/371/307 64/75/307 3/76/307 37/139/307
f 336/370/308 337/371/308 37/139/308 38/138/308
f 335/369/309 336/370/309 38/138/309 39/137/309
f 334/368/310 335/369/310 39/137/310 40/136/310
f 333/367/311 334/368/311 40/136/311 41/135/311
f 332/365/312 333/367/312 41/135/312 42/134/312
f 331/366/313 332/365/313 42/134/313 43/132/313
f 86/308/314 331/366/314 43/132/314 4/131/314
f 87/307/315 324/359/315 331/366/315 86/308/315
f 88/306/316 317/352/316 324/359/316 87/307/316
f 89/305/317 310/345/317 317/352/317 88/306/317
f 90/304/318 303/338/318 310/345/318 89/305/318
f 91/303/319 296/326/319 303/338/319 90/304/319
f 92/302/320 289/323/320 296/326/320 91/303/320
f 338/379/321 339/380/321 346/381/321 345/382/321
f 339/380/322 340/383/322 347/384/322 346/381/322
f 340/383/323 341/385/323 348/386/323 347/384/323
f 341/385/324 342/387/324 349/388/324 348/386/324
f 342/387/325 343/389/325 350/390/325 349/388/325
f 343/389/326 344/391/326 351/392/326 350/390/326
f 345/382/327 346/381/327 353/393/327 352/394/327
f 346/381/328 347/384/328 354/395/328 353/393/328
f 347/384/329 348/386/329 355/396/329 354/395/329
f 348/386/330 349/388/330 356/397/330 355/396/330
f 349/388/331 350/390/331 357/398/331 356/397/331
f 350/390/332 351/392/332 358/399/332 357/398/332
f 352/394/333 353/393/333 360/400/333 359/401/333
f 353/393/334 354/395/334 361/402/334 360/400/334
f 354/395/335 355/396/335 362/403/335 361/402/335
f 355/396/336 356/397/336 363/404/336 362/403/336
f 356/397/337 357/398/337 364/405/337 363/404/337
f 357/398/338 358/399/338 365/406/338 364/405/338
f 359/401/339 360/400/339 367/407/339 366/408/339
f 360/400/340 361/402/340 368/409/340 367/407/340
f 361/402/341 362/403/341 369/410/341 368/409/341
f 362/403/342 363/404/342 370/411/342 369/410/342
f 363/404/343 364/405/343 371/412/343 370/411/343
f 364/405/344 365/406/344 372/413/344 371/412/344
f 366/408/345 367/407/345 374/414/345 373/415/345
f 367/407/346 368/409/346 375/416/346 374/414/346
f 368/409/347 369/410/347 376/417/347 375/416/347
f 369/410/348 370/411/348 377/418/348 376/417/348
f 370/411/349 371/412/349 378/419/349 377/418/349
f 371/412/350 372/413/350 379/420/350 378/419/350
f 373/415/351 374/414/351 381/421/351 380/422/351
f 374/414/352 375/416/352 382/423/352 381/421/352
f 375/416/353 376/417/353 383/424/353 382/423/353
f 376/417/354 377/418/354 384/425/354 383/424/354
f 377/418/355 378/419/355 385/426/355 384/425/355
f 378/419/356 379/420/356 386/427/356 385/426/356
f 6/237/357 50/235/357 338/379/357 22/428/357
f 50/235/358 49/234/358 339/380/358 338/379/358
f 49/234/359 48/233/359 340/383/359 339/380/359
f 48/233/360 47/232/360 341/385/360 340/383/360
f 47/232/361 46/231/361 342/387/361 341/385/361
f 46/231/362 45/230/362 343/389/362 342/387/362
f 45/230/363 44/229/363 344/391/363 343/389/363
f 44/229/364 5/228/364 79/429/364 344/391/364
f 344/391/365 79/429/365 80/430/365 351/392/365
f 351/392/366 80/430/366 81/431/366 358/399/366
f 358/399/367 81/431/367 82/432/367 365/406/367
f 365/406/368 82/432/368 83/433/368 372/413/368
f 372/413/369 83/433/369 84/434/369 379/420/369
f 379/420/370 84/434/370 85/435/370 386/427/370
f 386/427/371 85/435/371 1/50/371 23/378/371
f 385/426/372 386/427/372 23/378/372 24/377/372
f 384/425/373 385/426/373 24/377/373 25/376/373
f 383/424/374 384/425/374 25/376/374 26/375/374
f 382/423/375 383/424/375 26/375/375 27/374/375
f 381/421/376 382/423/376 27/374/376 28/373/376
f 380/422/377 381/421/377 28/373/377 29/372/377
f 16/436/378 380/422/378 29/372/378 2/301/378
f 17/437/379 373/415/379 380/422/379 16/436/379
f 18/438/380 366/408/380 373/415/380 17/437/380
f 19/439/381 359/401/381 366/408/381 18/438/381
f 20/440/382 352/394/382 359/401/382 19/439/382
f 21/441/383 345/382/383 352/394/383 20/440/383
f 22/428/384 338/379/384 345/382/384 21/441/384
